<?xml version="1.0" encoding="utf-8"?>
<!-- Generator: Adobe Illustrator 20.1.0, SVG Export Plug-In . SVG Version: 6.00 Build 0)  -->
<svg version="1.1" id="图层_1" xmlns="http://www.w3.org/2000/svg" xmlns:xlink="http://www.w3.org/1999/xlink" x="0px" y="0px"
	 width="50px" height="50px" viewBox="0 0 50 50" style="enable-background:new 0 0 50 50;" xml:space="preserve">
<style type="text/css">
	.st0{fill:#231815;}
	.st1{clip-path:url(#SVGID_2_);}
	.st2{fill:none;stroke:#231815;stroke-width:0.1;stroke-miterlimit:10;}
	.st3{fill:#FFFFFF;}
	.st4{clip-path:url(#SVGID_4_);}
	.st5{fill:#FFFFFF;stroke:#231815;stroke-width:0.5;stroke-linejoin:round;stroke-miterlimit:10;}
	.st6{fill:#FFFFFF;stroke:#231815;stroke-linejoin:round;stroke-miterlimit:10;}
	.st7{fill:#FFFFFF;stroke:#231815;stroke-width:1.5;stroke-linejoin:round;stroke-miterlimit:10;}
	.st8{fill:none;stroke:#231815;stroke-width:0.5;stroke-linecap:round;stroke-linejoin:round;stroke-miterlimit:10;}
	.st9{fill:none;stroke:#231815;stroke-width:0.5;stroke-linejoin:round;stroke-miterlimit:10;}
	.st10{fill:none;}
	.st11{fill:#787878;}
</style>
<g>
	<g>
		<path class="st11" d="M25,50C11.2,50,0,38.8,0,25S11.2,0,25,0s25,11.2,25,25S38.8,50,25,50z M25,2C12.3,2,2,12.3,2,25
			s10.3,23,23,23s23-10.3,23-23S37.7,2,25,2z"/>
	</g>
	<g>
		<ellipse class="st11" cx="15.5" cy="18.2" rx="3" ry="4"/>
		<ellipse class="st11" cx="34.5" cy="18.2" rx="3" ry="4"/>
	</g>
	<path class="st11" d="M25,41.5c8.8,0,16-6.3,16-14H9C9,35.3,16.2,41.5,25,41.5z"/>
</g>
</svg>
