<?xml version="1.0" standalone="no"?><!DOCTYPE svg PUBLIC "-//W3C//DTD SVG 1.1//EN" "http://www.w3.org/Graphics/SVG/1.1/DTD/svg11.dtd"><svg class="icon" width="32px" height="31.97px" viewBox="0 0 1025 1024" version="1.1" xmlns="http://www.w3.org/2000/svg"><path d="M990.6368 312.4032c-18.432 0-33.3696 15.3856-33.3696 34.3616 0 12.032 6.0288 22.5792 15.1104 28.7168-42.2272 65.3568-146.2912 219.8208-186.7072 219.8208-41.2608 0-19.3024-220.9472-9.1776-307.1104 1.3952 0.1856 2.7712 0.4416 4.2176 0.4416 18.4256 0 33.3632-15.3856 33.3632-34.3616s-14.9376-34.3552-33.3632-34.3552c-18.432 0-33.3696 15.3792-33.3696 34.3552 0 14.5792 8.8512 26.9632 21.2928 31.9552-30.0224 77.792-108.8704 271.1488-150.8736 271.1488-42.2144 0-84.9664-214.5792-100.1728-299.1168 15.6416-2.8544 27.5392-16.8384 27.5392-33.76 0-18.976-14.9376-34.3552-33.3696-34.3552s-33.3632 15.3856-33.3632 34.3552c0 16.9216 11.8976 30.9056 27.5392 33.76-15.2128 84.5376-57.9584 299.1168-100.1728 299.1168-41.9968 0-120.8512-193.3568-150.8736-271.1488 12.448-4.992 21.2928-17.376 21.2928-31.9552 0-18.976-14.9376-34.3552-33.3632-34.3552-18.4256 0-33.3632 15.3792-33.3632 34.3552s14.9376 34.3616 33.3632 34.3616c1.4592 0 2.848-0.256 4.2496-0.4416 10.2336 86.432 32.544 308.608-8.7424 308.608-40.416 0-144.4864-154.464-186.7136-219.8272 9.088-6.1312 15.1168-16.6848 15.1168-28.7168 0-18.976-14.9376-34.3552-33.3696-34.3552C14.9376 313.8944 0 329.28 0 348.256c0 18.976 14.9376 34.3552 33.3632 34.3552 3.6096 0 7.0208-0.7424 10.272-1.8304l127.4496 403.5904c0 0 106.9248 49.4848 340.6784 49.4848 255.3728 0 340.4352-48.7104 340.4352-48.7104l-0.0192 0.0704 128.1856-405.9264c3.2576 1.088 6.6624 1.8304 10.2656 1.8304 18.4256 0 33.3632-15.3856 33.3632-34.3552C1024 327.7888 1009.0624 312.4032 990.6368 312.4032zM413.4912 759.3344c-11.9104 0-21.568-13.0752-21.568-29.216 0-16.1344 9.664-29.2096 21.568-29.2096s21.5552 13.0752 21.5552 29.2096C435.0464 746.2528 425.4016 759.3344 413.4912 759.3344zM515.8976 775.2256c-18.3872 0-33.2928-20.1984-33.2928-45.1072 0-24.9088 14.9056-45.1008 33.2928-45.1008 18.3872 0 33.2928 20.1984 33.2928 45.1008C549.1904 755.0272 534.2848 775.2256 515.8976 775.2256zM610.5152 759.3344c-11.9104 0-21.5616-13.0752-21.5616-29.216 0-16.1344 9.6512-29.2096 21.5616-29.2096 11.904 0 21.568 13.0752 21.568 29.2096C632.0832 746.2528 622.4192 759.3344 610.5152 759.3344z" fill="#eeb173" /></svg>