<?xml version="1.0" standalone="no"?><!DOCTYPE svg PUBLIC "-//W3C//DTD SVG 1.1//EN" "http://www.w3.org/Graphics/SVG/1.1/DTD/svg11.dtd"><svg class="icon" width="16px" height="16.00px" viewBox="0 0 1024 1024" version="1.1" xmlns="http://www.w3.org/2000/svg"><path d="M512.256 243.370667c-43.733333 0-80.042667 15.274667-108.928 45.781333-28.885333 30.592-43.221333 76.757333-43.221333 138.410667s14.336 107.861333 43.136 138.581333c28.885333 30.72 65.194667 46.122667 108.928 46.122667 43.392 0 79.658667-15.530667 108.501333-46.378667 28.8-30.890667 43.136-77.866667 43.136-141.013333 0-59.605333-14.421333-104.704-43.392-135.466667C591.445333 258.730667 555.392 243.370667 512.256 243.370667z" fill="#14b3c7" /><path d="M926.037333 392.064c-6.570667-20.096-14.677333-36.565333-24.746667-54.997333-9.386667-17.152-18.005333-35.029333-25.685333-53.632-11.733333-28.629333-19.157333-57.6-27.349333-87.253333-14.037333-50.261333-33.877333-69.077333-68.650667-86.570667-18.816-9.557333-36.138667-15.616-56.32-21.376-18.645333-5.504-37.504-12.074667-55.978667-19.754667-28.629333-11.904-54.229333-27.264-81.152-42.24-45.44-25.685333-72.789333-24.917333-109.696-12.842667-20.096 6.485333-36.565333 14.677333-54.912 24.746667C404.309333 47.701333 386.389333 56.234667 367.914667 63.914667c-28.544 11.733333-57.6 19.072-87.253333 27.349333C230.357333 105.386667 211.584 125.226667 194.090667 159.914667 184.490667 178.773333 178.56 196.138667 172.672 216.234667 167.168 235.008 160.682667 253.738667 152.917333 272.256 140.970667 300.885333 125.781333 326.528 110.592 353.408c-25.6 45.44-24.746667 72.874667-12.672 109.781333 6.570667 20.010667 14.592 36.650667 24.661333 54.912 9.386667 17.152 18.005333 35.029333 25.685333 53.632 11.733333 28.629333 19.072 57.6 27.349333 87.253333 14.037333 50.432 33.962667 69.077333 68.650667 86.741333 13.44 6.656 26.666667 10.709333 40.192 15.189333l-49.92 206.336 162.389333-58.368 49.664 109.781333 41.301333-170.837333c15.957333 2.602667 31.232 1.365333 47.36-2.858667l41.984 173.696 49.578667-109.696 162.56 58.368-49.066667-202.496c1.109333-0.256 2.048-0.512 3.029333-0.938667 50.346667-13.952 68.906667-33.877333 86.570667-68.565333 9.557333-18.816 15.445333-36.309333 21.461333-56.405333 5.333333-18.730667 11.904-37.504 19.498667-55.808 11.989333-28.629333 27.264-54.314667 42.410667-81.152C939.050667 456.362667 938.197333 428.970667 926.037333 392.064zM724.053333 566.997333c-19.925333 35.541333-48.896 63.189333-87.082667 82.773333-38.101333 19.584-79.658667 29.568-124.714667 29.568-72.277333 0-130.730667-21.632-175.317333-64.938667-44.586667-43.221333-66.816-105.557333-66.816-186.794667 0-89.258667 26.538667-155.306667 79.701333-198.272 44.330667-35.626667 98.56-53.546667 162.389333-53.546667 71.04 0 129.024 21.717333 174.122667 65.109333 45.013333 43.392 67.541333 103.381333 67.541333 179.882667C753.834667 482.688 743.978667 531.413333 724.053333 566.997333z" fill="#14b3c7" /></svg>