<?xml version="1.0" standalone="no"?><!DOCTYPE svg PUBLIC "-//W3C//DTD SVG 1.1//EN" "http://www.w3.org/Graphics/SVG/1.1/DTD/svg11.dtd"><svg class="icon" width="16px" height="16.00px" viewBox="0 0 1024 1024" version="1.1" xmlns="http://www.w3.org/2000/svg"><path d="M802.350342 594.363869c-99.310843-215.133755-35.230386-284.119943-34.570353-284.865933 1.093914-1.093914 1.25355-2.871397 0.405229-4.245697-0.906649-1.314948-2.622734-1.845021-4.119831-1.218758-1.430582 0.558725-139.658783 58.145281-122.259508 185.806823-37.948287-34.07405-215.058031-208.92331-106.683764-414.555667 0.655939-1.25355 0.467651-2.813069-0.534166-3.879354-0.935302-1.087774-2.529613-1.430582-3.778046-0.842181-2.369977 0.943488-57.620325 24.582885-101.652168 84.258009-40.631396 54.960753-78.4487 152.175865-27.54024 302.601876 18.516726 70.76367-16.396435 128.157845-35.138288 152.518672 4.625344-16.800641 10.401908-45.24753 9.432837-77.880765-1.493004-47.781236-18.732643-113.799836-92.372827-156.515706-1.127683-0.655939-2.597151-0.598634-3.686972 0.215918-1.155313 0.843204-1.622964 2.187829-1.286296 3.561106 0.222057 1.248434 27.800159 126.948297-20.543895 185.093579-41.724287 50.213635-82.6023 137.52826-60.491723 218.443128 18.549471 67.641563 76.477812 119.286804 172.19992 153.428392 24.542976 7.55507 48.059576 13.297864 74.014714 18.145266 1.687432 0.37453 3.344165-0.655939 3.869121-2.251274 0.467651-1.743714-0.313132-3.521197-1.873674-4.216022-49.183166-21.319561-99.870592-65.704444-62.2119-155.889443 35.885302-77.731362 29.486568-117.788683 22.270213-134.975111 18.549471 10.431583 55.369052 37.57171 46.191018 85.222987-0.25071 1.406023 0.376577 2.871397 1.590218 3.555989 1.25355 0.751107 2.785439 0.654916 3.874237-0.25071 1.184989-0.906649 111.924115-92.032066 61.579497-203.696262 24.804942 14.33345 90.605577 64.360843 51.785433 179.185009-12.932544 49.405223 22.265096 84.881203 23.733541 86.408999 1.184989 1.127683 2.934842 1.344624 4.301979 0.409322 1.315972-0.814552 1.845021-2.534729 1.25355-4.056386-1.157359-3.093455-27.363208-73.766051 29.544897-112.802112-3.031033 18.150382-7.809873 63.016219 12.58462 87.500866 18.294668 22.048155 35.977399 58.155515 30.566156 93.438089-3.776 24.799826-18.457374 45.715181-43.75248 62.11571-1.435699 1.02126-1.961678 2.775206-1.210571 4.370541 0.684592 1.590218 2.529613 2.282996 4.1536 1.777483 62.48717-20.698414 144.437623-61.73504 180.169429-140.057873C838.640873 742.414787 835.301825 673.216775 802.350342 594.363869L802.350342 594.363869 802.350342 594.363869zM802.350342 594.363869" fill="#d81e06" /></svg>