<?xml version="1.0" standalone="no"?><!DOCTYPE svg PUBLIC "-//W3C//DTD SVG 1.1//EN" "http://www.w3.org/Graphics/SVG/1.1/DTD/svg11.dtd"><svg class="icon" width="32px" height="32.00px" viewBox="0 0 1024 1024" version="1.1" xmlns="http://www.w3.org/2000/svg"><path d="M516.572 186.148c49.163 0 88.611 40.016 88.611 88.611 0 49.163-39.446 88.611-88.611 88.611s-88.611-39.446-88.611-88.611c0-48.592 39.446-88.611 88.611-88.611zM150.133 625.192v149.777h-41.159v-128.055h-8.576v128.055h-42.303v-260.11h-6.288v84.036h-37.16v-114.906c0-20.009 16.578-36.587 36.587-36.587h83.465c-1.144 5.144-1.715 10.861-1.715 16.007v161.782h17.152zM104.971 322.205c32.585 0 58.883 26.297 58.883 58.883 0 13.148-4.572 25.154-11.434 34.873-2.288 2.288-4.004 4.004-5.717 6.288-10.861 10.861-25.154 17.152-41.732 17.152-32.585 0-58.883-26.297-58.883-58.883 0-32.013 26.297-58.31 58.883-58.31zM872.724 625.192v149.777h41.159v-128.055h8.576v128.055h42.303v-260.11h6.288v84.036h37.16v-114.906c0-20.009-16.578-36.587-36.587-36.587h-83.465c1.144 5.144 1.715 10.861 1.715 16.007v161.782h-17.152zM917.886 322.205c-32.585 0-58.883 26.297-58.883 58.883 0 13.148 4.572 25.154 11.434 34.873 2.288 2.288 4.004 4.004 5.717 6.288 10.861 10.861 25.154 17.152 41.732 17.152 32.585 0 58.883-26.297 58.883-58.883 0-32.013-26.297-58.31-58.883-58.31zM679.498 644.054v186.364h51.45v-159.495h10.861v159.495h52.595v-324.138h8.003v105.188h46.877v-142.918c0-25.154-20.582-45.733-45.733-45.733h-104.044c1.715 6.288 2.288 13.148 2.288 20.009v201.8h-22.295v-0.572zM594.32 603.467v-126.91h-9.718v393.308h-62.312v-193.226h-13.148v193.226h-63.455v-393.308h-9.718v126.91h-56.594v-173.217c0-30.87 25.154-55.452 55.452-55.452h161.212c30.87 0 55.452 25.154 55.452 55.452v173.217h-57.168zM346.788 644.054v186.364h-51.45v-159.495h-10.861v159.495h-52.595v-324.138h-8.003v105.188h-46.877v-142.918c0-25.154 20.582-45.733 45.733-45.733h104.044c-1.715 6.288-2.288 13.148-2.288 20.009v201.8h22.295v-0.572zM290.763 266.181c40.588 0 73.174 32.585 73.174 73.174 0 16.578-5.144 31.442-14.291 43.447-2.288 2.288-4.572 5.144-6.861 8.003-13.148 13.148-31.442 21.15-51.45 21.15-40.588 0-73.174-32.585-73.174-73.174-1.144-39.446 32.013-72.602 72.602-72.602zM736.095 266.181c-40.588 0-73.174 32.585-73.174 73.174 0 16.578 5.144 31.442 14.291 43.447 2.288 2.288 4.572 5.144 6.861 8.003 13.148 13.148 31.442 21.15 51.45 21.15 40.588 0 73.174-32.585 73.174-73.174 0.572-39.446-32.013-72.602-72.602-72.602z" fill="#14b3c7" /></svg>