<?xml version="1.0" standalone="no"?><!DOCTYPE svg PUBLIC "-//W3C//DTD SVG 1.1//EN" "http://www.w3.org/Graphics/SVG/1.1/DTD/svg11.dtd"><svg class="icon" width="32px" height="32.00px" viewBox="0 0 1024 1024" version="1.1" xmlns="http://www.w3.org/2000/svg"><path d="M510.967872 118.772131c-220.875394 0-399.962505 179.061308-399.962505 399.962505 0 220.875394 179.087111 399.949603 399.962505 399.949603 220.901197 0 399.962505-179.074209 399.962505-399.949603C910.930377 297.820537 731.881971 118.772131 510.967872 118.772131zM510.967872 282.390223c30.151039 0 54.560867 20.345823 54.560867 45.452337s-24.409827 45.452337-54.560867 45.452337c-30.099433 0-54.535064-20.345823-54.535064-45.452337S480.868439 282.390223 510.967872 282.390223zM583.707093 736.887791 438.280257 736.887791l0-18.178355 36.343807 0L474.624065 445.995414l-36.343807 0 0-18.178355 109.070127 0 0 290.879476 36.356709 0L583.707093 736.887791z" fill="#bfbfbf" /></svg>