<?xml version="1.0" standalone="no"?><!DOCTYPE svg PUBLIC "-//W3C//DTD SVG 1.1//EN" "http://www.w3.org/Graphics/SVG/1.1/DTD/svg11.dtd"><svg class="icon" width="32px" height="32.00px" viewBox="0 0 1024 1024" version="1.1" xmlns="http://www.w3.org/2000/svg"><path d="M576 896c0 35.346-28.654 64-64 64s-64-28.654-64-64L448 576 128 576c-35.346 0-64-28.654-64-64s28.654-64 64-64l320 0L448 128c0-35.346 28.654-64 64-64s64 28.655 64 64l0 320 320 0c35.346 0 64 28.654 64 64s-28.654 64-64 64L576 576 576 896z" fill="#ffffff" /></svg>