<?xml version="1.0" standalone="no"?><!DOCTYPE svg PUBLIC "-//W3C//DTD SVG 1.1//EN" "http://www.w3.org/Graphics/SVG/1.1/DTD/svg11.dtd"><svg class="icon" width="32px" height="31.97px" viewBox="0 0 1025 1024" version="1.1" xmlns="http://www.w3.org/2000/svg"><path d="M972.824381 460.824381C972.824381 460.824381 563.151238 460.824381 563.151238 460.824381 563.151238 460.824381 563.151238 51.273143 563.151238 51.273143 563.151238 22.991238 540.281905 0.097524 512 0 483.718095 0.097524 460.824381 22.991238 460.824381 51.273143 460.824381 51.273143 460.824381 460.824381 460.824381 460.824381 460.824381 460.824381 51.175619 460.824381 51.175619 460.824381 22.942476 460.824381 0 483.718095 0 511.951238 0 540.281905 22.942476 563.151238 51.175619 563.151238 51.175619 563.151238 460.824381 563.151238 460.824381 563.151238 460.824381 563.151238 460.824381 972.775619 460.824381 972.775619 460.824381 1001.057524 483.718095 1024 512 1024 540.281905 1024 563.151238 1001.057524 563.151238 972.775619 563.151238 972.775619 563.151238 563.151238 563.151238 563.151238 563.151238 563.151238 972.824381 563.151238 972.824381 563.151238 1001.106286 563.151238 1024.048762 540.281905 1024 511.951238 1024 483.718095 1001.057524 460.824381 972.824381 460.824381 972.824381 460.824381 972.824381 460.824381 972.824381 460.824381Z" fill="#cdcdcd" /></svg>