<?xml version="1.0" standalone="no"?><!DOCTYPE svg PUBLIC "-//W3C//DTD SVG 1.1//EN" "http://www.w3.org/Graphics/SVG/1.1/DTD/svg11.dtd"><svg class="icon" width="32px" height="32.00px" viewBox="0 0 1024 1024" version="1.1" xmlns="http://www.w3.org/2000/svg"><path d="M513.834788 1020.244466c-281.281291 0-510.143723-228.819452-510.143723-510.100744S232.553497 0 513.834788 0s510.143723 228.862431 510.143723 510.143723S795.115056 1020.244466 513.834788 1020.244466zM513.834788 22.180162c-269.064039 0-487.963561 218.899522-487.963561 487.963561S244.769726 998.064304 513.834788 998.064304s487.963561-218.85552 487.963561-487.920582S782.898827 22.180162 513.834788 22.180162z"  /><path d="M749.497089 468.094024 555.861974 468.094024 555.861974 274.459932 471.806579 274.459932 471.806579 468.094024 278.172487 468.094024 278.172487 552.149419 471.806579 552.149419 471.806579 745.784534 555.861974 745.784534 555.861974 552.149419 749.497089 552.149419Z"  /></svg>