<?xml version="1.0" standalone="no"?><!DOCTYPE svg PUBLIC "-//W3C//DTD SVG 1.1//EN" "http://www.w3.org/Graphics/SVG/1.1/DTD/svg11.dtd"><svg class="icon" width="32px" height="32.00px" viewBox="0 0 1024 1024" version="1.1" xmlns="http://www.w3.org/2000/svg"><path d="M550.761 677.393s264.354-257.454 264.354-403.5c0-146.04-118.32-264.36-264.354-264.36-146.008 0-264.407 118.32-264.407 264.36 0 146.046 264.407 403.5 264.407 403.5zM411.603 273.892c0-76.859 62.335-139.145 139.158-139.145 76.856 0 139.14 62.286 139.14 139.145 0 76.867-62.283 139.155-139.14 139.155-76.823 0-139.158-62.288-139.158-139.155zM1022.3 773.126a29.66 29.66 0 0 0-15.811-20.187l-189.382-93.732c-0.073-0.034-0.147-0.068-0.216-0.103l-0.118-0.06c-0.039-0.024-0.088-0.034-0.127-0.059-7.42-3.636-15.987-3.95-23.568-1.069L547.311 748.15l-109.247-56.773a29.621 29.621 0 0 0-26.934-0.226L17.362 888.669C3.264 895.74-2.83 912.62 3.493 927.056c6.347 14.456 22.819 21.375 37.633 15.83l183.833-69.561 148.488 122.167c8.386 6.846 19.848 8.666 29.878 4.604l232.119-93.202 177.886 103.561c4.671 2.688 9.784 4.014 14.893 4.014 8.72 0 17.302-3.867 23.102-11.061l165.117-205.324c5.637-7.009 7.806-16.18 5.858-24.958zM381.16 925.073l-115.204-94.786 158.199-79.359 78.805 40.957-121.8 133.188z m239.053-75.939l-143.277 57.539 95.744-104.699 131.559-48.289-84.026 95.449z m200.898 97.255l-137.227-79.894L810.84 722.266l136.305 67.426-126.034 156.697z" fill="#8a8a8a" /></svg>