<?xml version="1.0" standalone="no"?><!DOCTYPE svg PUBLIC "-//W3C//DTD SVG 1.1//EN" "http://www.w3.org/Graphics/SVG/1.1/DTD/svg11.dtd"><svg class="icon" width="32px" height="32.00px" viewBox="0 0 1024 1024" version="1.1" xmlns="http://www.w3.org/2000/svg"><path d="M283.072 633.728h457.536c27.392 0 49.344-21.504 49.344-48s-22.144-48-49.344-48H283.072c-27.264 0-49.28 21.504-49.28 48s22.016 48 49.28 48zM740.608 707.776H283.072a48.64 48.64 0 0 0-49.28 48.128c0 26.368 22.016 48 49.28 48h457.536a48.64 48.64 0 0 0 49.344-48 48.64 48.64 0 0 0-49.344-48.128zM337.92 204.032a48.64 48.64 0 0 0 48-49.344V49.344c0-27.136-21.504-49.344-48-49.344s-48 22.208-48 49.344v105.344a48.64 48.64 0 0 0 48 49.344zM686.016 204.032a48.64 48.64 0 0 0 48-49.344V49.344c0-27.2-21.504-49.344-48-49.344s-48 22.208-48 49.344v105.344a48.64 48.64 0 0 0 48 49.344zM475.2 150.08h73.344c27.328 0 49.344-21.504 49.344-48s-22.144-48-49.344-48H475.2c-27.264 0-49.28 21.504-49.28 48s22.016 48 49.28 48z" fill="#2c2c2c" /><path d="M992 102.08a46.08 46.08 0 0 0-12.096-30.4c-0.896-1.088-1.28-2.432-2.368-3.392-0.896-0.96-2.24-1.408-3.264-2.304a46.72 46.72 0 0 0-30.4-12.032l-0.64 0.128-0.768-0.128h-121.152c-27.392 0-49.344 21.504-49.344 48s22.016 48 49.344 48h74.496v157.056H128.064V150.08h74.496c27.264 0 49.344-21.504 49.344-48s-22.08-48-49.344-48H81.408l-0.832 0.128-0.64-0.128a46.08 46.08 0 0 0-30.4 12.032c-0.768 0.768-2.24 1.344-3.008 2.24-1.088 0.96-1.6 2.304-2.496 3.328a46.72 46.72 0 0 0-12.032 30.4l0.128 0.64-0.128 0.704v871.104l0.128 0.768-0.128 0.576a46.72 46.72 0 0 0 12.032 30.4c0.896 1.152 1.344 2.368 2.368 3.392 0.896 1.024 2.176 1.344 3.264 2.368a47.744 47.744 0 0 0 30.4 11.968l0.704-0.128 0.704 0.128h860.992c0.256 0 0.512-0.256 0.768-0.256s0.512 0.256 0.768 0.256a46.592 46.592 0 0 0 39.36-22.848c1.6-2.368 3.52-4.352 4.608-6.976 1.472-3.52 1.728-7.616 2.368-11.52 0.384-2.24 1.344-4.224 1.344-6.656v-0.256c0-0.384 0.256-0.768 0.256-1.152V103.36l-0.128-0.64c0.064-0.192 0.192-0.384 0.192-0.64zM128.064 403.072H896v524.8H128.064v-524.8z" fill="#2c2c2c" /></svg>