<?xml version="1.0" standalone="no"?><!DOCTYPE svg PUBLIC "-//W3C//DTD SVG 1.1//EN" "http://www.w3.org/Graphics/SVG/1.1/DTD/svg11.dtd"><svg class="icon" width="32px" height="32.00px" viewBox="0 0 1024 1024" version="1.1" xmlns="http://www.w3.org/2000/svg"><path d="M605.696 774.144c-14.336 0-26.112-14.336-26.112-32.768v-358.4c0-17.92 11.776-32.768 25.6-32.768 14.336 0 26.112 14.336 26.112 32.768v358.912c0 17.92-11.264 32.256-25.6 32.256z m341.504-563.2h-167.424V143.872c0-55.296-44.544-100.352-99.84-100.352H344.576c-55.296 0-100.352 45.056-100.352 100.352v67.072H76.8c-18.432 0-33.28 14.848-33.28 33.28s14.848 33.28 33.28 33.28h870.4c18.432 0 33.28-14.848 33.28-33.28s-14.848-33.28-33.28-33.28zM311.296 143.872c0-18.432 14.848-33.28 33.28-33.28h335.36c18.432 0 32.768 14.848 32.768 33.28v67.072H311.296V143.872zM414.72 774.144c-14.336 0-26.112-14.336-26.112-32.768v-358.4c0-17.92 11.776-32.768 25.6-32.768 14.336 0 26.112 14.336 26.112 32.768v358.912c0.512 17.92-11.264 32.256-25.6 32.256z" fill="#707070" /><path d="M746.496 980.48H278.016c-55.296 0-100.352-45.056-100.352-100.352V377.856c0-18.432 14.848-33.28 33.28-33.28s33.28 14.848 33.28 33.28v502.272c0 18.432 14.848 33.28 33.28 33.28h468.48c18.432 0 33.28-14.848 33.28-33.28V378.88c0-18.432 14.848-33.28 33.28-33.28s33.28 14.848 33.28 33.28v501.248c1.024 55.296-44.032 100.352-99.328 100.352z" fill="#707070" /></svg>