<?xml version="1.0" standalone="no"?><!DOCTYPE svg PUBLIC "-//W3C//DTD SVG 1.1//EN" "http://www.w3.org/Graphics/SVG/1.1/DTD/svg11.dtd"><svg class="icon" width="32px" height="32.00px" viewBox="0 0 1024 1024" version="1.1" xmlns="http://www.w3.org/2000/svg"><path d="M99.55567 85.31923A85.276421 85.276421 0 0 1 184.960091 0.000142H686.933285L938.666548 256.000071v683.605144A84.337754 84.337754 0 0 1 854.172349 1023.999858H184.049869A84.465754 84.465754 0 0 1 99.55567 939.562548V85.31923z" fill="#3D9364" /><path d="M938.666548 256.000071H772.152817a85.33331 85.33331 0 0 1-85.219532-85.247976V0.000142L938.666548 256.000071z" fill="#2A6645" /><path d="M608.93864 682.666619l-91.349308-130.517297L424.661358 682.666619H351.288934l129.848852-176.881728L359.992931 341.333381h76.458646l83.185754 120.490633 86.755532-120.490633h71.836424L557.084432 505.784891 686.933285 682.666619z" fill="#FFFFFF" /></svg>