<?xml version="1.0" standalone="no"?><!DOCTYPE svg PUBLIC "-//W3C//DTD SVG 1.1//EN" "http://www.w3.org/Graphics/SVG/1.1/DTD/svg11.dtd"><svg class="icon" width="32px" height="32.00px" viewBox="0 0 1024 1024" version="1.1" xmlns="http://www.w3.org/2000/svg"><path d="M796.262 469.745h-174.363c-15.314 0-29.053-9.162-34.972-23.344-5.895-14.23-2.66-30.434 8.163-41.309 22.369-22.369 21.679-79.068 15.662-113.005-21.211-39.669-42.619-42.791-48.735-42.791-5.697 1.924-11.984 15.021-14.551 24.355-0.517 115.185-118.847 187.632-123.903 190.679-2.417 1.455-4.985 2.626-7.646 3.502v258.267h320.415c8.114 0 12.182-4.044 12.602-5.183-0.075-2.271 0.271-5.227 0.934-8.163l57.981-239.152c-1.675-1.566-5.474-3.859-11.59-3.859z" fill="#707070" /><path d="M317.663 469.745h47.893v256.355h-47.893v-256.355z" fill="#707070" /><path d="M512.693 26.81c-268.475 0-486.146 217.659-486.146 486.146 0 268.49 217.67 486.16 486.146 486.16 268.524 0 486.146-217.67 486.146-486.16 0.001-268.486-217.62-486.146-486.146-486.146zM799.345 723.141c-0.988 29.644-28.878 53.469-63.011 53.469h-469.178v-357.372h133.177c16.45-10.827 98.626-69.068 96.578-149.356l-0.023-1.318 0.222-1.282c0.42-2.257 10.653-55.358 53.37-67.317 1.259-0.308 5.278-1.171 11.539-1.171 17.609 0 62.249 7.314 96.186 75.087l1.060 3.023c0.837 3.982 18.078 87.035-12.407 142.34h149.403c34.751 0 63.040 24.714 63.040 55.094l-0.347 2.973-59.609 245.834z" fill="#707070" /></svg>