<?xml version="1.0" standalone="no"?><!DOCTYPE svg PUBLIC "-//W3C//DTD SVG 1.1//EN" "http://www.w3.org/Graphics/SVG/1.1/DTD/svg11.dtd"><svg class="icon" width="32px" height="32.00px" viewBox="0 0 1024 1024" version="1.1" xmlns="http://www.w3.org/2000/svg"><path d="M128 197.12c-71.68 0-128 56.32-128 128v7.68c0 12.8 10.24 23.04 23.04 23.04s23.04-10.24 23.04-23.04v-7.68C48.64 281.6 84.48 245.76 128 245.76c43.52 0 79.36 35.84 79.36 79.36v271.36c0 43.52-35.84 79.36-79.36 79.36-43.52 0-79.36-35.84-79.36-79.36v-143.36c0-17.92 15.36-33.28 33.28-33.28 17.92 0 30.72 15.36 33.28 33.28V588.8c0 12.8 10.24 23.04 23.04 23.04s23.04-10.24 23.04-23.04v-135.68c0-43.52-35.84-79.36-79.36-79.36S0 409.6 0 453.12v143.36c0 71.68 56.32 128 128 128s128-56.32 128-128V325.12c0-71.68-56.32-128-128-128zM844.8 256H435.2c-12.8 0-25.6-10.24-25.6-25.6 0-12.8 10.24-25.6 25.6-25.6h409.6c12.8 0 25.6 10.24 25.6 25.6s-12.8 25.6-25.6 25.6zM844.8 460.8H435.2c-12.8 0-25.6-10.24-25.6-25.6 0-12.8 10.24-25.6 25.6-25.6h409.6c12.8 0 25.6 10.24 25.6 25.6s-12.8 25.6-25.6 25.6zM844.8 665.6H435.2c-12.8 0-25.6-10.24-25.6-25.6 0-12.8 10.24-25.6 25.6-25.6h409.6c12.8 0 25.6 10.24 25.6 25.6s-12.8 25.6-25.6 25.6z" fill="#707070" /><path d="M947.2 0H179.2C135.68 0 102.4 33.28 102.4 76.8v76.8h51.2V76.8c0-15.36 10.24-25.6 25.6-25.6h768c15.36 0 25.6 10.24 25.6 25.6v870.4c0 15.36-10.24 25.6-25.6 25.6H179.2c-15.36 0-25.6-10.24-25.6-25.6v-179.2H102.4v179.2c0 43.52 33.28 76.8 76.8 76.8h768c43.52 0 76.8-33.28 76.8-76.8V76.8c0-43.52-33.28-76.8-76.8-76.8z" fill="#707070" /><path d="M844.8 870.4H435.2c-12.8 0-25.6-12.8-25.6-25.6s10.24-25.6 25.6-25.6h409.6c12.8 0 25.6 12.8 25.6 25.6s-12.8 25.6-25.6 25.6z" fill="#707070" /></svg>