<?xml version="1.0" standalone="no"?><!DOCTYPE svg PUBLIC "-//W3C//DTD SVG 1.1//EN" "http://www.w3.org/Graphics/SVG/1.1/DTD/svg11.dtd"><svg class="icon" width="32px" height="32.00px" viewBox="0 0 1024 1024" version="1.1" xmlns="http://www.w3.org/2000/svg"><path d="M512 1024C229.229714 1024 0 794.770286 0 512 0 229.229714 229.229714 0 512 0 794.770286 0 1024 229.229714 1024 512 1024 794.770286 794.770286 1024 512 1024ZM512 17.718857C239.012571 17.718857 17.718857 239.012571 17.718857 512 17.718857 784.987429 239.012571 1006.281143 512 1006.281143 784.987429 1006.281143 1006.281143 784.987429 1006.281143 512 1006.281143 239.012571 784.987429 17.718857 512 17.718857ZM749.714286 585.142857 713.142857 585.142857C703.049143 585.142857 694.857143 576.950857 694.857143 566.857143L694.857143 493.714286C694.857143 483.620571 703.049143 475.428571 713.142857 475.428571L749.714286 475.428571C759.808 475.428571 768 483.620571 768 493.714286L768 566.857143C768 576.950857 759.808 585.142857 749.714286 585.142857ZM749.714286 420.571429 713.142857 420.571429C703.049143 420.571429 694.857143 412.379429 694.857143 402.285714L694.857143 329.142857C694.857143 319.049143 703.049143 310.857143 713.142857 310.857143L749.714286 310.857143C759.808 310.857143 768 319.049143 768 329.142857L768 402.285714C768 412.379429 759.808 420.571429 749.714286 420.571429ZM603.428571 585.142857 566.857143 585.142857C556.763429 585.142857 548.571429 576.950857 548.571429 566.857143L548.571429 493.714286C548.571429 483.620571 556.763429 475.428571 566.857143 475.428571L603.428571 475.428571C613.522286 475.428571 621.714286 483.620571 621.714286 493.714286L621.714286 566.857143C621.714286 576.950857 613.522286 585.142857 603.428571 585.142857ZM603.428571 420.571429 566.857143 420.571429C556.763429 420.571429 548.571429 412.379429 548.571429 402.285714L548.571429 329.142857C548.571429 319.049143 556.763429 310.857143 566.857143 310.857143L603.428571 310.857143C613.522286 310.857143 621.714286 319.049143 621.714286 329.142857L621.714286 402.285714C621.714286 412.379429 613.522286 420.571429 603.428571 420.571429ZM731.428571 676.571429 731.428571 694.857143C731.428571 704.950857 723.236571 713.142857 713.142857 713.142857L310.857143 713.142857C300.763429 713.142857 292.571429 704.950857 292.571429 694.857143L292.571429 676.571429C292.571429 666.477714 300.763429 658.285714 310.857143 658.285714L713.142857 658.285714C723.236571 658.285714 731.428571 666.477714 731.428571 676.571429ZM457.142857 585.142857 420.571429 585.142857C410.477714 585.142857 402.285714 576.950857 402.285714 566.857143L402.285714 493.714286C402.285714 483.620571 410.477714 475.428571 420.571429 475.428571L457.142857 475.428571C467.236571 475.428571 475.428571 483.620571 475.428571 493.714286L475.428571 566.857143C475.428571 576.950857 467.236571 585.142857 457.142857 585.142857ZM457.142857 420.571429 420.571429 420.571429C410.477714 420.571429 402.285714 412.379429 402.285714 402.285714L402.285714 329.142857C402.285714 319.049143 410.477714 310.857143 420.571429 310.857143L457.142857 310.857143C467.236571 310.857143 475.428571 319.049143 475.428571 329.142857L475.428571 402.285714C475.428571 412.379429 467.236571 420.571429 457.142857 420.571429ZM310.857143 585.142857 274.285714 585.142857C264.192 585.142857 256 576.950857 256 566.857143L256 493.714286C256 483.620571 264.192 475.428571 274.285714 475.428571L310.857143 475.428571C320.950857 475.428571 329.142857 483.620571 329.142857 493.714286L329.142857 566.857143C329.142857 576.950857 320.950857 585.142857 310.857143 585.142857ZM310.857143 420.571429 274.285714 420.571429C264.192 420.571429 256 412.379429 256 402.285714L256 329.142857C256 319.049143 264.192 310.857143 274.285714 310.857143L310.857143 310.857143C320.950857 310.857143 329.142857 319.049143 329.142857 329.142857L329.142857 402.285714C329.142857 412.379429 320.950857 420.571429 310.857143 420.571429Z" fill="#707070" /></svg>