<?xml version="1.0" standalone="no"?><!DOCTYPE svg PUBLIC "-//W3C//DTD SVG 1.1//EN" "http://www.w3.org/Graphics/SVG/1.1/DTD/svg11.dtd"><svg class="icon" width="32px" height="32.00px" viewBox="0 0 1024 1024" version="1.1" xmlns="http://www.w3.org/2000/svg"><path d="M853.333333 831.010133c0 50.244267-40.7552 90.999467-91.022222 90.999467l-364.088889 0c-0.113778 0-0.227556-0.022756-0.364089-0.022756l-112.867556 0c-0.182044 0-0.364089 0.022756-0.546133 0.022756l-159.288889 0 0-500.622222 159.288889 0c2.844444 0 5.552356 0.546133 8.328533 0.8192 28.444444-81.92 68.539733-195.447467 84.878222-232.948622 25.622756-58.914133 47.968711-78.051556 88.814933-86.471111 40.618667-8.351289 168.891733 51.245511 129.160533 209.237333-4.096 16.292978-9.898667 39.480889-15.997156 63.852089L830.577778 375.876267c50.267022 0 68.266667 40.7552 68.266667 91.044978L853.333333 831.010133zM261.688889 466.898489 171.326578 466.898489 170.666667 466.875733l0 409.6 0 0 0 0.045511 91.022222 0 0-0.045511 22.755556 0 0 0 0-405.048889 0.864711-3.868444c0.2048-0.568889-0.2048 0.568889 0 0C280.644267 465.988267 266.877156 466.898489 261.688889 466.898489zM807.822222 421.387378 523.377778 421.387378l34.133333-136.556089c19.069156-83.945244-49.607111-134.439822-68.266667-136.533333-13.061689-1.456356-50.176 5.211022-68.266667 45.533867-11.832889 26.373689-64.079644 171.190044-91.5456 247.785244 0.091022 0.864711 0.500622 1.615644 0.500622 2.503111l0 432.355556 0 0 91.022222 0 0 0.045511 0 0 341.333333 0c25.122133 0 45.511111-20.388978 45.511111-45.533867l45.511111-364.088889C853.333333 441.7536 832.944356 421.387378 807.822222 421.387378z" fill="#8a8a8a" /></svg>