<?xml version="1.0" standalone="no"?><!DOCTYPE svg PUBLIC "-//W3C//DTD SVG 1.1//EN" "http://www.w3.org/Graphics/SVG/1.1/DTD/svg11.dtd"><svg class="icon" width="32px" height="32.00px" viewBox="0 0 1024 1024" version="1.1" xmlns="http://www.w3.org/2000/svg"><path d="M541.141333 869.319111l0 60.174222 29.141333 0c16.099556 0 29.155556 13.184 29.155556 29.425778 0 16.284444-13.056 29.425778-29.155556 29.425778l-29.141333 0-58.282667 0-29.155556 0c-16.099556 0-29.127111-13.155556-29.127111-29.425778 0-16.256 13.027556-29.425778 29.127111-29.425778l29.155556 0 0-60.174222c-143.886222-13.098667-265.699556-122.296889-291.427556-263.509333l58.296889 0C276.252444 723.726222 387.214222 811.804444 512 811.804444c124.771556 0 235.747556-88.078222 262.272-205.994667l58.296889 0C806.840889 747.022222 684.999111 856.220444 541.141333 869.319111zM512 752.938667c-112.668444 0-204.003556-92.216889-204.003556-205.980444L307.996444 252.686222c0-113.749333 91.335111-205.980444 204.003556-205.980444s203.989333 92.231111 203.989333 205.980444l0 294.272C715.989333 660.721778 624.668444 752.938667 512 752.938667zM657.706667 252.686222c0-81.251556-65.237333-147.128889-145.706667-147.128889s-145.720889 65.877333-145.720889 147.128889l0 294.272c0 81.28 65.237333 147.128889 145.720889 147.128889s145.706667-65.848889 145.706667-147.128889L657.706667 252.686222z" fill="#ffffff" /></svg>