<?xml version="1.0" standalone="no"?><!DOCTYPE svg PUBLIC "-//W3C//DTD SVG 1.1//EN" "http://www.w3.org/Graphics/SVG/1.1/DTD/svg11.dtd"><svg class="icon" width="32px" height="32.00px" viewBox="0 0 1024 1024" version="1.1" xmlns="http://www.w3.org/2000/svg"><path d="M859.072 896l-505.130667 0c0 0-161.749333 0-215.658667 0-31.616 0-51.114667-14.997333-68.48-34.090667-17.493333-19.2-27.136-44.117333-27.136-70.122667l0-559.168c0-57.450667 46.741333-104.213333 104.213333-104.213333l712.170667 0c57.472 0 104.213333 46.741333 104.213333 104.213333l0 205.248c0 0.298667 0 0.533333-0.021333 0.832-0.021333 0.490667-2.026667 53.248 15.957333 88 4.864 9.408 1.173333 20.949333-8.213333 25.792-9.386667 4.885333-20.928 1.216-25.792-8.213333-21.930667-42.368-20.437333-100.544-20.202667-106.794667l0-204.885333c0-36.373333-29.568-65.92-65.941333-65.92l-712.170667 0c-36.352 0-65.92 29.546667-65.92 65.92l0 559.168c0 33.749333 25.045333 61.952 58.389333 65.706667l214.613333 0.213333 505.088 0c36.352 0 65.92-29.546667 65.92-65.92l-0.405333-105.088c-0.106667-1.792-1.642667-20.117333-20.117333-43.754667-0.042667-0.085333-0.106667-0.128-0.149333-0.213333l-22.357333-29.333333-120.704-159.701333c-0.426667-0.576-40.149333-52.373333-88.832-46.869333-39.466667 4.416-78.208 46.506667-112 121.621333-18.154667 40.298667-35.669333 70.293333-53.632 91.669333-18.133333 21.632-36.736 34.538667-56.896 39.466667-44.714667 10.965333-83.456-19.541333-124.48-51.882667l-5.205333-4.074667c-47.936-37.674667-70.784-29.034667-163.029333 61.376-7.552 7.424-19.669333 7.296-27.072-0.256-7.402667-7.573333-7.274667-19.669333 0.277333-27.093333 48.042667-47.125333 79.850667-74.88 110.250667-86.784 34.346667-13.418667 66.197333-6.464 103.210667 22.677333l5.248 4.117333c34.944 27.498667 65.088 51.242667 91.669333 44.757333 26.368-6.464 54.869333-43.370667 84.714667-109.674667 40.298667-89.578667 88.384-138.005333 142.912-144 70.485333-7.744 121.322667 59.093333 123.456 61.952l120.597333 159.573333 22.229333 29.162667c27.050667 34.624 28.138667 63.466667 28.181333 66.666667 0 0.042667 0 0.085333 0 0.128l0.405333 105.450667C963.264 849.258667 916.522667 896 859.072 896zM302.186667 428.586667c-43.584 0-79.04-43.669333-79.04-87.253333s35.456-79.04 79.04-79.04 79.04 35.456 79.04 79.04S345.770667 428.586667 302.186667 428.586667zM302.186667 300.586667c-22.464 0-40.768 18.282667-40.768 40.746667s18.282667 48.96 40.768 48.96 40.746667-26.496 40.746667-48.96S324.650667 300.586667 302.186667 300.586667z" fill="#707070" /></svg>