<?xml version="1.0" standalone="no"?><!DOCTYPE svg PUBLIC "-//W3C//DTD SVG 1.1//EN" "http://www.w3.org/Graphics/SVG/1.1/DTD/svg11.dtd"><svg class="icon" width="32px" height="28.42px" viewBox="0 0 1153 1024" version="1.1" xmlns="http://www.w3.org/2000/svg"><path d="M992.226237 0H160.879811C57.514533 0 0 57.112333 0 160.879811v526.479184C0 791.126473 54.296936 844.61901 156.455617 844.61901h94.516889l-12.065986 104.571878a73.200314 73.200314 0 0 0 114.224666 60.732128l245.341713-165.304006h398.579733c103.767478 0 156.455617-53.492537 156.455616-158.466614V160.879811c0.4022-103.767478-57.112333-160.879811-161.282011-160.879811z m-271.484682 676.499607H230.05813a54.699136 54.699136 0 0 1-46.252945-60.329929 54.699136 54.699136 0 0 1 46.252945-60.329929h490.683425a54.699136 54.699136 0 0 1 46.252946 60.329929 54.699136 54.699136 0 0 1-46.252946 60.329929zM183.805185 398.177533a54.699136 54.699136 0 0 1 46.252945-60.329929h289.583661a54.699136 54.699136 0 0 1 46.252946 60.329929 54.699136 54.699136 0 0 1-46.252946 60.32993h-289.583661a54.699136 54.699136 0 0 1-46.252945-60.32993zM921.84132 241.319717H230.05813a54.699136 54.699136 0 0 1-46.252945-60.329929A54.699136 54.699136 0 0 1 230.05813 120.659859h691.78319a54.699136 54.699136 0 0 1 46.252946 60.329929A54.699136 54.699136 0 0 1 921.84132 241.319717z" fill="#1296db" /></svg>