<?xml version="1.0" standalone="no"?><!DOCTYPE svg PUBLIC "-//W3C//DTD SVG 1.1//EN" "http://www.w3.org/Graphics/SVG/1.1/DTD/svg11.dtd"><svg class="icon" width="32px" height="32.00px" viewBox="0 0 1024 1024" version="1.1" xmlns="http://www.w3.org/2000/svg"><path d="M428.957 183.719c-111.357 0-161.819 66.476-161.819 161.819h53.938c1.79-67.638 45.829-106.195 107.881-107.881 54.467 1.686 78.486 31.395 80.386 81.648 0 26.024-18.752 56.362-56.362 91.024-43.3 38.138-50.99 65.843-50.99 97.029v53.938h53.938v-53.933c0-17.276 9.271-40.667 39.4-68.371 45.09-39.929 67.638-79.752 67.638-119.681 0-79.757-47.514-135.59-134.01-135.59z m-26.966 485.462h53.938v-53.943h-53.938v53.943z m458.49-172.252V123.458s-10.114-74.695-80.91-74.695H24.409v771.81s10.114 62.79 107.881 64.267c97.767 1.476 296.671 0 296.671 0-11.695 1.581 431.519-387.91 431.519-387.91zM401.991 831s-249.581-0.738-269.7 0c-62.367 2.424-53.938-60.157-53.938-60.157V98.7h701.224c35.4 0 26.971 29.605 26.971 49.833v323.643L401.991 831z m576.8-182.467l-93.762-87.443-16.648-15.381-16.538 15.381-333.229 310.681-1.371 6.429-34.343 141.486 162.767-29.495 5.057-4.633 344.819-321.533-16.752-15.49zM622.386 949.838l-75.748 14.119 15.067-70.69 236.305-220.29 60.576 56.576-236.2 220.286z m269.49-251.262L831.3 642l37.19-34.662 60.681 56.576-37.295 34.662z" /></svg>