<?xml version="1.0" standalone="no"?><!DOCTYPE svg PUBLIC "-//W3C//DTD SVG 1.1//EN" "http://www.w3.org/Graphics/SVG/1.1/DTD/svg11.dtd"><svg class="icon" width="32px" height="32.00px" viewBox="0 0 1024 1024" version="1.1" xmlns="http://www.w3.org/2000/svg"><path d="M655.552463 817.448714c-27.803229 0.014326-55.666834 1.195222-83.393315-0.249687-35.395138-1.845021-65.741283-2.100848-58.304917 48.817846 3.455705 23.659863-18.627243 19.302625-33.062 19.976984-15.754822 0.735757-31.969109 1.348718-31.496341-22.315238 0.586354-29.334095 0.599657-58.694797 0.10847-88.030939-0.376577-22.496363 14.123672-25.085328 30.777981-23.39892 27.91784 2.827395 40.655955-8.15882 36.879955-36.713156-3.307326-25.010627 9.918907-32.616862 32.638351-31.575136 18.494213 0.848321 37.147038-1.060145 55.580876 0.289596 32.238238 2.360767 55.511291-2.77009 49.276287-43.893696-3.202948-21.128203 10.685363-25.406646 28.758997-25.247011 58.69275 0.51677 117.399827 0.780783 176.085414-0.00921 21.011546-0.282433 33.192983 6.562463 31.064506 28.803-2.781346 29.060873 7.343245 44.188408 38.670741 40.302915 24.483624-3.037173 32.851199 9.147334 31.066553 32.593326-1.402953 18.427698-1.728364 37.19718 0.096191 55.553247 3.112897 31.31931-2.997264 51.786457-41.147142 45.617967-6.938016-1.121544-21.188578 3.431146-21.110807 4.118807 4.608971 40.517809-35.116799 62.372559-40.814568 97.93552-2.515287 15.69854 4.879124 37.303604-22.942525 35.045167-14.093996-1.144056-34.821063 9.190313-40.275285-10.787694-4.768607-17.464767-13.806447-43.163055 10.594289-52.721759 22.965038-8.996908 19.700691-24.873504 19.294438-41.018206-0.315178-12.548804 5.38873-30.512944-16.273638-31.843242-20.932752-1.285273-20.877493 15.219633-20.018939 28.886911 1.65264 26.322505-6.0416 42.100864-35.791158 38.795585-27.578102-3.063779-35.613102 11.981892-32.402991 36.294624 3.595898 27.243481-9.485025 32.895201-34.620495 33.67496-31.003108 0.961908-30.922267-16.204054-30.491455-37.926798 0.673335-33.968649 0.225127-67.958788 0.249687-101.935624 69.554122 8.16189 69.554122 8.16189 65.446571-63.396889 13.662161-0.38681 27.409257-1.925862 40.968064-0.925069 30.344099 2.238994 28.689413-17.797341 30.037107-38.560224 1.812275-27.926026-13.269211-32.994462-36.359093-32.866548-20.037359 0.110517-37.275975 0.859577-35.271318 28.015054 1.115404 15.103999 1.174756 30.286794 1.689479 45.406143C649.656173 742.856855 647.078465 745.349629 655.552463 817.448714z" fill="#515151" /><path d="M759.176542 508.651742c-13.846356 0.595564-27.78788 2.49789-41.517579 1.496074-23.848151-1.741667-35.092239 8.071839-32.398898 31.862685 4.883217 43.141566-25.663496 36.609803-51.088562 36.632315-23.925922 0.020466-53.085032 6.361895-48.922223-34.107819 2.659573-25.852808-8.252964-34.458813-34.408671-34.923394-28.921703-0.512676-39.545668 10.151197-36.029588 37.655621 3.221368 25.199938-10.243295 32.122605-32.750915 31.260981-24.620747-0.942465-49.308009-0.605797-73.957409-0.242524-33.970696 0.500397-70.281693 6.933923-63.733557-48.483224 2.700505-22.853497-19.206434-19.449981-33.870412-19.076474-14.182001 0.361227-37.430494-5.178953-34.604122 17.993816 7.209192 59.103096-31.933293 49.960879-66.586534 49.485041-13.866822-0.190335-27.756157-0.738827-41.59842-0.189312-24.509207 0.971118-26.469861-14.806217-26.554796-33.350572-0.088004-19.084661 3.345188-34.915207 27.427676-31.861662 32.581046 4.130064 44.922119-9.68764 41.265846-41.638329-3.362584-29.379121 18.455327-26.331715 36.81651-26.368554 72.426543-0.145309 144.958486-2.443655 217.239719 0.791016 42.240033 1.890047 58.418504-10.658757 54.105269-53.838186-1.74269-17.451464-14.06125-46.14804 21.974477-49.904597 26.343995-2.746554 43.143613 1.213641 43.726897 35.152615 1.143033 66.438155 3.049452 66.404386 70.532403 67.373457 9.244548 0.13303 18.489096 0.36225 27.733645 0.424672 67.327408 0.452301 67.327408 0.443092 75.732845 65.463967L759.176542 508.651742z" fill="#515151" /><path d="M71.900563 214.914768c-0.017396-38.620599 1.098008-77.285201-0.429789-115.845425-0.940418-23.741727 6.439666-32.54216 31.258934-32.133861 80.30907 1.321088 160.65805 0.992607 240.980423 0.155543 22.090111-0.230244 34.144658 3.895727 33.741475 30.039153-1.263783 81.855286-0.910743 163.747411-0.169869 245.616 0.194428 21.474081-7.02909 30.29805-29.288047 30.082132-83.411735-0.807389-166.839843-0.731664-250.254647-0.070608-20.774139 0.164752-26.418696-9.092076-26.070772-28.081569C72.460312 301.434284 71.91796 258.169921 71.900563 214.914768zM227.923036 307.057351c83.587744-0.007163 83.587744-0.007163 83.591837-81.910545 0-1.534959 0-3.068895 0-4.603855 0.001023-87.219457-0.005117-87.86414-87.526449-87.049588-99.602486 0.926092-85.154425-13.926174-86.037539 84.189448C137.14759 307.058374 137.779993 307.064514 227.923036 307.057351z" fill="#515151" /><path d="M807.969828 67.422575c40.027645 0 80.090083 1.010003 120.068609-0.387833 23.152303-0.809435 32.82664 5.596462 32.409131 30.773887-1.351787 81.57183-1.343601 163.193803-0.028653 244.766656 0.417509 25.877367-11.171434 30.518061-33.304524 30.30112-80.047104-0.784876-160.123884-1.280156-240.151545 0.197498-28.001751 0.51677-33.158191-11.900028-32.860409-36.07666 0.967024-78.502935 1.156336-157.038616-0.097214-235.534388-0.408299-25.582655 7.148817-35.808554 33.905204-34.533514C727.848023 68.830645 767.943207 67.422575 807.969828 67.422575zM894.054439 220.717937c0.00307-87.395466 0.00307-87.395466-88.289835-87.395466-86.405929 0-86.405929 0-86.407975 84.225263-0.002047 89.50757-0.002047 89.50757 90.222861 89.509616C894.052392 307.059398 894.052392 307.059398 894.054439 220.717937z" fill="#515151" /><path d="M223.713154 955.496813c-40.029692-0.001023-80.097246-1.047866-120.074749 0.397043-23.373337 0.845251-32.653701-5.965875-32.246425-30.946826 1.333368-81.576947 1.331321-163.203012 0.029676-244.780982-0.410346-25.701358 10.860349-30.68793 33.156144-30.461779 80.051197 0.812505 160.121837 0.88516 240.170988-0.002047 23.155373-0.25685 33.029254 6.617721 32.682353 31.402197-1.143033 81.583087-1.231037 163.204036 0.01535 244.784052 0.398066 26.051329-11.618619 30.53955-33.652448 29.925566C303.795051 954.700681 263.742846 955.49886 223.713154 955.496813zM137.781016 796.942681c-0.00614 92.656283-0.00614 92.656283 87.627756 92.653213 86.102007-0.00307 86.102007-0.00307 86.1061-84.520999 0.005117-90.178859 0.005117-90.178859-89.61604-90.177835C137.787156 714.899106 137.787156 714.899106 137.781016 796.942681z" fill="#515151" /><path d="M757.709121 510.25731c35.07382 3.742231 73.7814 14.766308 67.569932-45.37442-2.430352-23.535019 18.896372-19.198248 33.556257-19.914562 16.431228-0.801249 33.44881 0.890276 31.156604 22.973224-3.904936 37.627992 13.261025 49.13507 48.068785 45.034682 24.122397-2.841721 21.63781 15.540951 21.907962 30.988782 0.304945 17.420765 1.942235 34.602076-24.290219 34.234709-50.9146-0.714268-102.18224 3.450589-152.677285-1.204431-48.533366-4.473895-19.240203-44.022633-23.867594-68.292386C759.176542 508.651742 757.709121 510.25731 757.709121 510.25731z" fill="#515151" /><path d="M582.654176 214.71727c2.739391 27.743878 6.675026 63.149249-50.234101 56.836473-22.858614-2.535753-17.847483 21.285792-17.102516 35.047214 1.342578 24.775266-9.674337 31.766494-32.670074 31.571043-22.220071-0.188288-35.053354-5.765307-33.587979-30.973432 1.24434-21.424962 1.311879-43.059702-0.13303-64.464197-1.77032-26.221198 5.29254-41.677215 35.278481-37.804001 22.547529 2.912329 35.874045-5.522784 32.695656-30.593785-3.374864-26.618241 5.202489-38.320771 34.917254-38.535665 34.5724-0.249687 31.206746 20.59813 30.861892 42.37204C582.532403 187.385784 582.654176 196.60168 582.654176 214.71727z" fill="#515151" /><path d="M513.799996 96.794533c5.307889 29.446659-7.336082 36.670178-32.458249 37.078477-27.480888 0.447185-32.531927-12.158924-32.648584-35.980469-0.116657-23.978111 8.65717-31.776727 32.138978-30.980595C503.817644 67.692728 522.390651 68.932975 513.799996 96.794533z" fill="#515151" /><path d="M105.827257 445.317275c28.845978-4.783956 31.514761 12.125155 32.378431 35.106566 1.119497 29.777187-16.063861 29.438473-37.682227 30.441313-26.414603 1.225921-28.306696-12.58155-29.235858-33.536814C70.102614 450.622094 80.635505 441.026552 105.827257 445.317275z" fill="#515151" /><path d="M514.391467 651.443889c4.184299 27.682479-13.400195 28.182876-33.698496 29.404704-28.817326 1.735527-31.367405-13.96199-31.895431-36.930097-0.719384-31.312146 19.201318-27.835975 39.569204-28.859281C517.536087 613.594863 515.319605 632.689756 514.391467 651.443889z" fill="#515151" /><path d="M547.848463 890.186342c25.128307-4.041036 36.172851 5.678326 35.204803 32.172747-0.760317 20.827351-2.88777 34.970466-29.377074 33.633005-21.263279-1.073448-38.968523 0.305969-37.255509-30.073946C517.676279 903.672494 518.291287 885.422851 547.848463 890.186342z" fill="#515151" /><path d="M923.571706 890.706181c28.634154-5.050016 37.913495 5.90243 36.999682 32.144094-0.741897 21.300119-2.907213 34.623565-29.442566 33.226752-21.721721-1.143033-39.470967-0.434905-37.354769-30.565133C895.313106 903.571187 894.637724 883.07027 923.571706 890.706181z" fill="#515151" /><path d="M272.757151 218.528062c10.806113 44.676525-9.695826 52.106752-48.461735 52.918233-41.163515 0.861624-50.594305-12.07399-51.031257-51.739385-0.454348-41.271986 12.048407-51.687196 51.818179-50.607608C263.327384 170.138982 286.064224 176.114067 272.757151 218.528062z" fill="#515151" /><path d="M855.234295 218.85245c11.6749 45.942355-11.295254 51.214429-49.045019 52.517097-41.395806 1.428535-50.801013-11.883655-51.355645-51.728128-0.585331-42.015929 13.114692-51.706639 52.498678-50.440809C845.016583 170.410158 869.616864 175.037549 855.234295 218.85245z" fill="#515151" /><path d="M220.178655 851.440899c-50.279127 12.815887-42.651402-21.60711-46.261627-53.071729-5.428639-47.320749 21.394263-44.546565 54.769394-47.572482 48.084135-4.358261 44.017516 22.901593 46.815235 55.57883C279.46083 852.623841 256.000512 857.640088 220.178655 851.440899z" fill="#515151" /></svg>