<?xml version="1.0" standalone="no"?><!DOCTYPE svg PUBLIC "-//W3C//DTD SVG 1.1//EN" "http://www.w3.org/Graphics/SVG/1.1/DTD/svg11.dtd"><svg class="icon" width="32px" height="32.00px" viewBox="0 0 1024 1024" version="1.1" xmlns="http://www.w3.org/2000/svg"><path d="M814.545455 46.545455H209.454545C146.618182 46.545455 93.090909 97.745455 93.090909 162.909091v698.181818c0 65.163636 51.2 116.363636 116.363636 116.363636h605.09091c65.163636 0 116.363636-51.2 116.363636-116.363636V162.909091c0-65.163636-51.2-116.363636-116.363636-116.363636zM302.545455 744.727273c-11.636364 0-23.272727-11.636364-23.272728-23.272728s9.309091-23.272727 23.272728-23.272727 23.272727 11.636364 23.272727 23.272727-9.309091 23.272727-23.272727 23.272728z m0-139.636364c-11.636364 0-23.272727-11.636364-23.272728-23.272727s9.309091-23.272727 23.272728-23.272727 23.272727 11.636364 23.272727 23.272727-9.309091 23.272727-23.272727 23.272727z m0-139.636364c-11.636364 0-23.272727-11.636364-23.272728-23.272727s9.309091-23.272727 23.272728-23.272727 23.272727 11.636364 23.272727 23.272727-9.309091 23.272727-23.272727 23.272727z m0-139.636363c-11.636364 0-23.272727-11.636364-23.272728-23.272727s9.309091-23.272727 23.272728-23.272728 23.272727 11.636364 23.272727 23.272728-9.309091 23.272727-23.272727 23.272727z m418.90909 418.909091H395.636364c-11.636364 0-23.272727-11.636364-23.272728-23.272728s9.309091-23.272727 23.272728-23.272727h325.818181c13.963636 0 23.272727 11.636364 23.272728 23.272727s-9.309091 23.272727-23.272728 23.272728z m0-139.636364H395.636364c-11.636364 0-23.272727-11.636364-23.272728-23.272727s9.309091-23.272727 23.272728-23.272727h325.818181c13.963636 0 23.272727 11.636364 23.272728 23.272727s-9.309091 23.272727-23.272728 23.272727z m0-139.636364H395.636364c-11.636364 0-23.272727-11.636364-23.272728-23.272727s9.309091-23.272727 23.272728-23.272727h325.818181c13.963636 0 23.272727 11.636364 23.272728 23.272727s-9.309091 23.272727-23.272728 23.272727z m0-139.636363H395.636364c-11.636364 0-23.272727-11.636364-23.272728-23.272727s9.309091-23.272727 23.272728-23.272728h325.818181c13.963636 0 23.272727 11.636364 23.272728 23.272728s-9.309091 23.272727-23.272728 23.272727z" fill="#efb336" /></svg>