<?xml version="1.0" standalone="no"?><!DOCTYPE svg PUBLIC "-//W3C//DTD SVG 1.1//EN" "http://www.w3.org/Graphics/SVG/1.1/DTD/svg11.dtd"><svg class="icon" width="32px" height="32.00px" viewBox="0 0 1024 1024" version="1.1" xmlns="http://www.w3.org/2000/svg"><path d="M806.745954 903.635655l-622.170169 0c-34.645055 0-62.831001-28.185946-62.831001-62.829977l0-622.579491c0-34.645055 28.185946-62.831001 62.831001-62.831001l331.551208 0c14.128789 0 25.582655 11.453866 25.582655 25.582655s-11.453866 25.582655-25.582655 25.582655l-331.551208 0c-6.432503 0-11.665691 5.233188-11.665691 11.665691l0 622.579491c0 6.432503 5.233188 11.664667 11.665691 11.664667l622.170169 0c6.432503 0 11.664667-5.232165 11.664667-11.664667l0-331.960531c0-14.128789 11.452843-25.582655 25.582655-25.582655 14.128789 0 25.582655 11.453866 25.582655 25.582655l0 331.960531C869.575932 875.449709 841.389986 903.635655 806.745954 903.635655z" fill="#8a8a8a" /><path d="M393.33025 657.223522c-6.570649 0-13.138228-2.515287-18.138102-7.540743-9.963932-10.017144-9.920954-26.215058 0.096191-36.178991l462.534402-460.078467c10.018168-9.962909 26.215058-9.921977 36.178991 0.096191 9.963932 10.017144 9.920954 26.215058-0.096191 36.178991l-462.534402 460.078467C406.380474 654.743028 399.85485 657.223522 393.33025 657.223522z" fill="#8a8a8a" /><path d="M884.517225 370.69881c-14.128789 0-25.582655-11.453866-25.582655-25.582655l0-163.319669c0-8.463766-6.885827-15.349593-15.349593-15.349593l-163.728992 0c-14.128789 0-25.582655-11.453866-25.582655-25.582655s11.453866-25.582655 25.582655-25.582655l163.728992 0c36.676317 0 66.514903 29.838585 66.514903 66.514903l0 163.319669C910.09988 359.244944 898.646014 370.69881 884.517225 370.69881z" fill="#8a8a8a" /></svg>