<?xml version="1.0" standalone="no"?><!DOCTYPE svg PUBLIC "-//W3C//DTD SVG 1.1//EN" "http://www.w3.org/Graphics/SVG/1.1/DTD/svg11.dtd"><svg class="icon" width="32px" height="32.00px" viewBox="0 0 1024 1024" version="1.1" xmlns="http://www.w3.org/2000/svg"><path d="M925.097456 492.295216c-16.615423 0-30.037107 13.403265-30.037107 29.948079l0 283.162128c0 36.341696-29.714765 65.896826-66.176189 65.896826L194.455807 871.302249c-36.453237 0-66.151629-29.55513-66.151629-65.896826L128.304178 210.827683c0-36.33351 29.698392-65.911152 66.151629-65.911152l206.794833 0c16.584724 0 30.051433-13.397125 30.051433-29.948079 0-16.528442-13.467733-29.933753-30.051433-29.933753L194.455807 85.034698c-69.621661 0-126.264729 56.410777-126.264729 125.792984l0 594.57774c0 69.356624 56.643068 125.792984 126.264729 125.792984l634.428354 0c69.64622 0 126.281101-56.435337 126.281101-125.792984L955.165262 522.243295C955.165262 505.69848 941.705716 492.295216 925.097456 492.295216L925.097456 492.295216 925.097456 492.295216 925.097456 492.295216zM294.170856 667.824975c-2.987031 16.238846 7.838525 31.843242 24.174586 34.830273 1.822508 0.354064 3.637854 0.481977 5.435803 0.481977 14.240329 0 26.90579-10.085706 29.538757-24.534789 0.249687-1.276063 24.086581-127.245056 107.111506-252.467035 48.309262-72.881914 106.854657-130.835837 173.995823-172.242899 64.103993-39.538505 136.544863-64.144926 216.092593-73.54911l-97.882308 100.614535c-11.541871 11.868305-11.244089 30.847565 0.666172 42.348504 5.838985 5.630231 13.380752 8.455579 20.936845 8.455579 7.822153 0 15.678074-3.051499 21.565155-9.099239l151.540392-155.771763c0.119727-0.103354 0.208754-0.225127 0.320295-0.337691 0.161682-0.176009 0.303922-0.328481 0.465604-0.506537 0.178055-0.176009 0.320295-0.352017 0.506537-0.560772 0-0.016373 0.023536-0.064468 0.056282-0.064468 0.161682-0.186242 0.303922-0.370437 0.433882-0.554632 0.151449-0.186242 0.345877-0.394996 0.481977-0.579191 0.143263-0.208754 0.295735-0.39295 0.441045-0.579191 0.152473-0.240477 0.305969-0.465604 0.506537-0.696872 0.072655-0.161682 0.192382-0.305969 0.287549-0.458441 0.121773-0.159636 0.194428-0.303922 0.305969-0.481977 0.056282-0.048095 0.089028-0.103354 0.127913-0.151449 0.016373-0.040932 0.040932-0.105401 0.056282-0.144286 0.105401-0.169869 0.178055-0.305969 0.305969-0.450255 0.1361-0.287549 0.281409-0.512676 0.449231-0.802272 0.080841-0.144286 0.161682-0.312108 0.2415-0.457418 0.023536-0.056282 0.056282-0.121773 0.089028-0.169869 0.11154-0.225127 0.224104-0.449231 0.337691-0.657986 0.072655-0.178055 0.184195-0.36225 0.240477-0.554632 0.1361-0.2415 0.25685-0.473791 0.354064-0.7552 0.097214-0.208754 0.167822-0.401136 0.25685-0.60989 0.097214-0.25685 0.216941-0.481977 0.273223-0.707105 0.105401-0.233314 0.184195-0.457418 0.273223-0.707105 0.089028-0.208754 0.144286-0.432859 0.208754-0.641613 0.113587-0.249687 0.161682-0.49835 0.2415-0.763386 0.086981-0.225127 0.11154-0.425695 0.159636-0.63445 0.105401-0.248663 0.152473-0.538259 0.208754-0.810459 0.049119-0.161682 0.097214-0.320295 0.144286-0.490164 0-0.064468 0-0.103354 0.024559-0.144286 0.056282-0.248663 0.103354-0.512676 0.159636-0.802272 0.024559-0.1361 0.057305-0.273223 0.072655-0.433882 0.016373-0.103354 0.032746-0.224104 0.049119-0.345877 0.022513-0.192382 0.064468-0.424672 0.119727-0.618077 0.016373-0.1361 0.031722-0.287549 0.031722-0.401136 0.032746-0.216941 0.049119-0.39295 0.072655-0.585331 0.032746-0.1361 0.040932-0.208754 0.040932-0.336668 0-0.097214 0.016373-0.192382 0.016373-0.314155 0-0.056282 0.031722-0.11154 0.056282-0.176009 0-0.265036 0.016373-0.49835 0.016373-0.771573 0-0.031722 0-0.080841 0.014326-0.119727 0-0.161682 0-0.305969 0-0.473791l0-0.016373c0.016373-0.345877 0.016373-0.642636 0.016373-0.947582l0-0.024559 0-0.031722c0-0.49835-0.016373-0.972141-0.016373-1.454118-0.014326-0.040932-0.014326-0.097214-0.014326-0.119727l0-0.26606 0-0.023536c-0.016373-0.370437-0.072655-0.682545-0.089028-1.028423-0.024559-0.089028-0.040932-0.216941-0.040932-0.314155l0 0c0-0.064468 0-0.103354-0.023536-0.143263-0.049119-0.305969-0.064468-0.618077-0.105401-0.932232-0.031722-0.1361-0.056282-0.265036-0.072655-0.409322-0.014326-0.039909-0.022513-0.127913-0.022513-0.161682-0.049119-0.248663-0.080841-0.496304-0.121773-0.785899-0.056282-0.169869-0.086981-0.328481-0.119727-0.490164 0-0.039909 0-0.072655-0.016373-0.103354-0.023536-0.040932-0.023536-0.080841-0.023536-0.12996-0.056282-0.200568-0.089028-0.39295-0.169869-0.593518-0.056282-0.303922-0.1361-0.626263-0.232291-0.939395-0.024559-0.127913-0.049119-0.233314-0.089028-0.378623-0.11154-0.345877-0.216941-0.690732-0.337691-1.067308-0.016373-0.072655-0.040932-0.127913-0.056282-0.208754-0.089028-0.248663-0.194428-0.49835-0.273223-0.779759 0 0-0.040932-0.031722-0.040932-0.086981-0.016373-0.080841-0.095167-0.208754-0.119727-0.289596 0-0.064468-0.016373-0.080841-0.056282-0.161682-0.113587-0.248663-0.178055-0.512676-0.320295-0.771573-0.057305-0.143263-0.12996-0.320295-0.194428-0.449231 0-0.024559-0.031722-0.039909-0.031722-0.039909-0.105401-0.273223-0.225127-0.554632-0.345877-0.818645l-0.016373 0c-0.281409-0.587378-0.554632-1.150196-0.923022-1.735527l0 0c-0.225127-0.401136-0.474814-0.796132-0.690732-1.212618-0.024559-0.024559-0.064468-0.072655-0.097214-0.105401-0.127913-0.233314-0.289596-0.465604-0.449231-0.666172l-0.040932-0.064468c-0.056282-0.113587-0.103354-0.225127-0.200568-0.322341-0.080841-0.119727-0.161682-0.232291-0.25685-0.352017-0.072655-0.080841-0.119727-0.169869-0.192382-0.249687-0.064468-0.103354-0.105401-0.176009-0.194428-0.265036-0.064468-0.080841-0.11154-0.152473-0.176009-0.25685-0.152473-0.200568-0.320295-0.401136-0.481977-0.626263-0.089028-0.080841-0.176009-0.184195-0.273223-0.297782-0.031722-0.039909-0.064468-0.127913-0.1361-0.159636-0.200568-0.265036-0.401136-0.490164-0.618077-0.723477-0.072655-0.064468-0.11154-0.119727-0.160659-0.184195-0.287549-0.314155-0.618077-0.618077-0.86674-0.924045-0.064468-0.022513-0.080841-0.048095-0.11154-0.078795-0.314155-0.314155-0.660032-0.642636-0.972141-0.956791-0.016373-0.014326-0.016373-0.014326-0.039909-0.022513-0.354064-0.305969-0.684592-0.593518-1.044796-0.883113 0-0.016373-0.040932-0.056282-0.056282-0.056282-0.354064-0.273223-0.698918-0.562818-1.044796-0.812505-0.056282-0.031722-0.089028-0.064468-0.152473-0.11154-0.305969-0.216941-0.626263-0.442068-0.955768-0.682545-0.089028-0.064468-0.176009-0.127913-0.289596-0.192382-0.159636-0.105401-0.303922-0.208754-0.490164-0.314155-0.119727-0.095167-0.240477-0.151449-0.384763-0.240477-0.144286-0.080841-0.297782-0.184195-0.433882-0.281409-0.11154-0.072655-0.25685-0.152473-0.401136-0.233314-0.127913-0.095167-0.273223-0.143263-0.433882-0.224104-0.143263-0.089028-0.328481-0.194428-0.512676-0.273223-0.248663-0.1361-0.481977-0.249687-0.738827-0.38681-0.192382-0.127913-0.394996-0.192382-0.60989-0.281409-0.216941-0.11154-0.481977-0.232291-0.707105-0.328481-0.216941-0.095167-0.449231-0.176009-0.666172-0.281409-0.216941-0.080841-0.458441-0.159636-0.674359-0.265036-0.249687-0.080841-0.490164-0.167822-0.7552-0.273223-0.202615-0.064468-0.394996-0.1361-0.611937-0.200568-0.11154-0.039909-0.248663-0.064468-0.376577-0.127913L713.958688 44.534286c-15.781428-5.227048-32.815383 3.325745-38.010709 19.009959-5.229095 15.684214 3.323699 32.647561 19.064194 37.859259l88.785116 29.313629c-65.253166 14.055111-125.799124 38.172391-181.01468 72.240301-74.617441 46.01808-139.388631 109.985974-192.546318 190.152804C320.529177 528.428158 295.222815 662.178371 294.170856 667.824975L294.170856 667.824975 294.170856 667.824975 294.170856 667.824975zM294.170856 667.824975" /></svg>