<?xml version="1.0" standalone="no"?><!DOCTYPE svg PUBLIC "-//W3C//DTD SVG 1.1//EN" "http://www.w3.org/Graphics/SVG/1.1/DTD/svg11.dtd"><svg class="icon" width="32px" height="32.00px" viewBox="0 0 1024 1024" version="1.1" xmlns="http://www.w3.org/2000/svg"><path d="M872.4 81.3H380c-74.1 0-134.7 58.1-139.1 131.1h368.3c97.6 0 176.7 79.1 176.7 176.7v319.5c0 19.9-3.7 38.9-10.1 56.6l88.7 65.4c4.2 3.1 9.2 4.7 14.3 4.7 4.2 0 8.4-1.1 12.2-3.3 8.3-4.9 12.9-14.3 11.6-23.8l-14.7-113.7c69.7-7.7 124.1-67 124.1-138.7V220.9c0-77-62.6-139.6-139.6-139.6z" fill="#ffffff" /><path d="M602.5 259.9H143.7c-72.6 0-131.7 59-131.7 131.6v311.9c0 68.4 52.4 124.8 119.2 131.1l-12.6 80.3c-1.5 9.5 2.8 19 10.9 24.1 3.9 2.5 8.4 3.7 12.9 3.7 4.8 0 9.5-1.4 13.6-4.2l150.8-103.3h295.8c72.6 0 131.7-59.1 131.7-131.7V391.5c-0.1-72.6-59.1-131.6-131.8-131.6zM216.4 589c-22.9 0-41.5-18.6-41.5-41.5s18.6-41.5 41.5-41.5 41.5 18.6 41.5 41.5c-0.1 22.9-18.6 41.5-41.5 41.5z m156.7 0c-22.9 0-41.5-18.6-41.5-41.5s18.6-41.5 41.5-41.5 41.5 18.6 41.5 41.5S396 589 373.1 589z m156.8 0c-22.9 0-41.5-18.6-41.5-41.5S507 506 529.9 506s41.5 18.6 41.5 41.5c-0.1 22.9-18.6 41.5-41.5 41.5z" fill="#ffffff" /></svg>