<?xml version="1.0" standalone="no"?><!DOCTYPE svg PUBLIC "-//W3C//DTD SVG 1.1//EN" "http://www.w3.org/Graphics/SVG/1.1/DTD/svg11.dtd"><svg class="icon" width="32px" height="32.00px" viewBox="0 0 1024 1024" version="1.1" xmlns="http://www.w3.org/2000/svg"><path d="M510.381543 8.99164C231.491116 8.99164 5.406682 235.540135 5.406682 515.002966s226.084434 506.012285 504.974861 506.012285 504.974861-226.549453 504.974861-506.012285S789.271011 8.99164 510.381543 8.99164zM511.157213 995.062412c-264.586067 0-479.075715-214.929738-479.075715-480.059446S246.571146 34.943521 511.157213 34.943521c264.586067 0 479.075715 214.929738 479.075715 480.059446S775.743281 995.062412 511.157213 995.062412z" fill="#707070" /><path d="M551.013633 227.420045l-2.370157 2.782442c-12.007071 14.097258-11.044434 34.975161 2.006772 48.109783 62.654801 63.053663 101.373124 149.92012 101.373124 245.833828 0 94.476464-37.565843 180.175101-98.572464 242.983311-12.747266 13.124075-13.63991 33.70379-1.866787 47.709004l0 0c13.435685 15.98418 37.754727 17.018727 52.387955 2.122787 74.715566-76.060764 120.80036-180.337139 120.80036-295.378936 0-115.431071-46.398322-220.02385-121.55973-296.149813C588.621663 210.654442 564.478082 211.611326 551.013633 227.420045z" fill="#707070" /><path d="M475.937558 526.522966c0 46.508584-14.01576 89.739026-38.047161 125.7123-9.682936 14.494202-6.842966 33.971296 6.429723 45.270772l0 0c15.637094 13.312959 39.456599 10.158502 50.911401-6.886112 31.680719-47.139476 50.16833-103.886142 50.16833-164.95221 0-65.48039-21.256629-125.995146-57.243326-175.024419-12.324434-16.790532-36.702921-18.722517-51.681318-4.250367l-0.71239 0.688419c-12.421273 12.001318-14.053154 31.338427-3.815071 45.248719C459.596704 429.897828 475.937558 476.300944 475.937558 526.522966z" fill="#707070" /><path d="M340.028404 524.356075m-48.452075 0a50.534 50.534 0 1 0 96.90415 0 50.534 50.534 0 1 0-96.90415 0Z" fill="#707070" /></svg>