<?xml version="1.0" standalone="no"?><!DOCTYPE svg PUBLIC "-//W3C//DTD SVG 1.1//EN" "http://www.w3.org/Graphics/SVG/1.1/DTD/svg11.dtd"><svg class="icon" width="32px" height="32.00px" viewBox="0 0 1024 1024" version="1.1" xmlns="http://www.w3.org/2000/svg"><path d="M512.012 0c282.774 0 512.012 229.231 512.012 511.998s-229.238 511.999-512.012 511.999c-109.424 0-210.826-34.34-294.031-92.811-18.969-5.878-32.745-23.56-32.745-44.46l-0.427-4.321c0-25.703 20.835-46.542 46.538-46.542 14.514 0 27.475 6.642 36.012 17.053 68.869 49.515 153.351 78.686 244.653 78.686 231.747 0 419.618-187.864 419.618-419.607S743.762 92.387 512.012 92.387c-231.747 0-419.618 187.864-419.618 419.611 0 71.443 17.87 138.711 49.365 197.596a46.368 46.368 0 0 1 12.503 31.734l0.427 4.322c0 25.703-20.835 46.542-46.538 46.542-20.9 0-38.582-13.777-44.464-32.742C23.116 686.103 0 601.75 0 511.995 0 229.228 229.235 0 512.012 0z" fill="#14b3c7" /><path d="M583.615 513.603l-152.46-154.355c-18.176-18.173-18.176-47.64 0-65.814 18.173-18.176 47.641-18.176 65.817 0L676.33 475.017a46.678 46.678 0 0 1 6.12 5.155 46.395 46.395 0 0 1 13.627 33.43c0.136 12.084-4.403 24.209-13.627 33.428a46.825 46.825 0 0 1-6.116 5.154L498.508 732.232c-18.173 18.176-47.64 18.176-65.817 0-18.173-18.177-18.173-47.641 0-65.818l150.924-152.811z" fill="#14b3c7" /></svg>