<?xml version="1.0" standalone="no"?><!DOCTYPE svg PUBLIC "-//W3C//DTD SVG 1.1//EN" "http://www.w3.org/Graphics/SVG/1.1/DTD/svg11.dtd"><svg class="icon" width="32px" height="31.97px" viewBox="0 0 1025 1024" version="1.1" xmlns="http://www.w3.org/2000/svg"><path d="M691.648218 129.52064c8.64128 34.72512 9.48864 37.6128 8.68736 73.27872-0.32256 13.75232-8.20608 77.31072-6.07616 96.81664 1.7664 16.06784 5.77792 17.3504 12.12672 30.59968 11.02464 23.05792 7.3344 54.84928 3.09376 78.11328-2.31552 12.72064-7.2192 30.82752-14.6688 41.21088-8.2048 11.46112-24.63872 11.52896-31.88224 24.89088-10.47552 19.23072-4.56064 46.23104-11.16288 66.99776-7.4944 23.5392-26.58816 25.18912-28.01024 56.01792 9.35424 1.30688 18.68288 2.65856 28.01024 3.9872 9.37472 19.89632 26.51904 59.9616 44.02944 72.01792 14.67008 4.0128 29.34016 8.02304 44.00896 12.00896 51.43424 21.08928 108.55296 46.30144 160.07808 68.02944 46.94144 19.80416 103.0976 26.86336 120.05888 76.0512 0 33.3952 3.16288 112.288 2.29248 156.06656L0.152538 985.60768c-0.8704-43.77856 2.26816-122.67136 2.26816-156.06656 16.96128-49.18784 73.14048-56.24704 120.05888-76.0512 51.52512-21.72928 108.66688-46.94144 160.07808-68.02944 14.6688-3.98592 29.36064-7.99616 44.03072-12.00896 17.51168-12.05632 34.656-52.1216 44.00768-72.01792l20.83456-5.06496c-4.72192-26.31296-21.01888-28.35328-27.80288-46.9632-2.65856-28.00896-5.31712-56.04096-7.97568-84.0512 0.1152 1.32992-19.1616-3.50592-21.70624-5.088-27.16032-17.0304-27.71072-86.20544-30.3232-114.94656-1.19168-13.15584 17.07648-23.9296 12.01024-48.04224C285.837018 156.13312 328.514778 90.07488 395.947738 68.16256c46.82624-18.97728 134.26816-54.1376 215.8208-3.98848l20.21632 18.74944 32.75264 5.66016C681.171418 98.07488 691.648218 129.52064 691.648218 129.52064z" fill="#8a8a8a" /></svg>