<?xml version="1.0" standalone="no"?><!DOCTYPE svg PUBLIC "-//W3C//DTD SVG 1.1//EN" "http://www.w3.org/Graphics/SVG/1.1/DTD/svg11.dtd"><svg class="icon" width="32px" height="32.00px" viewBox="0 0 1024 1024" version="1.1" xmlns="http://www.w3.org/2000/svg"><path d="M1021.87008 300.00128c2.12992-9.6 1.3312-19.46624-5.34016-27.4688-1.05984-1.06496-3.2-0.79872-4.5312-2.13504-11.20256-25.86624-30.92992-43.73504-67.99872-43.73504h-832c-39.46496 0-82.13504 15.20128-101.33504 44.53376-0.79872 0.79872-2.13504 0.79872-2.93376 1.3312C1.06496 280.52992 0 290.39616 1.86368 299.72992 1.60256 302.1312 0 304 0 306.66752v512c0 53.32992 58.9312 112 112 112h832c53.0688 0 80.27136-58.94144 80.27136-112v-512c0-2.93376-2.14016-3.99872-2.40128-6.66624z m-93.87008-9.33376h16.53248L512 635.4688 81.3312 291.99872c9.86624-1.8688 21.86752-1.3312 30.6688-1.3312H928z m16 576h-832c-17.60256 0-48-30.14144-48-48V360.00256l427.20256 341.32992a30.8224 30.8224 0 0 0 20.80256 8.00256c7.47008 0 14.92992-2.6624 21.0688-7.7312l427.20256-341.33504v458.66496c-0.00512 17.59744 1.32608 47.73376-16.27648 47.73376z" fill="#ffffff" /></svg>