<?xml version="1.0" standalone="no"?><!DOCTYPE svg PUBLIC "-//W3C//DTD SVG 1.1//EN" "http://www.w3.org/Graphics/SVG/1.1/DTD/svg11.dtd"><svg class="icon" width="32px" height="32.00px" viewBox="0 0 1024 1024" version="1.1" xmlns="http://www.w3.org/2000/svg"><path d="M526.439874 45.24753c-246.12663 0-447.503057 201.376427-447.503057 447.503057s201.376427 447.503057 447.503057 447.503057 447.503057-201.376427 447.503057-447.503057S772.566504 45.24753 526.439874 45.24753zM514.353604 787.306206c-29.398564 0-53.453423-24.054859-53.453423-53.453423s24.054859-53.452399 53.453423-53.452399c29.398564 0 53.452399 24.052812 53.452399 53.452399C567.806004 763.252371 543.752168 787.306206 514.353604 787.306206zM702.755532 425.670819c-8.999978 16.956184-28.16241 38.08541-57.486272 63.389726-29.325909 25.302269-48.777937 43.302225-58.358129 53.997821-9.581216 10.695596-14.476713 16.34834-21.148669 28.722158s-8.274454 14.037714-14.244422 30.329772c-5.969968 16.291035-19.916609 25.88453-38.208207 25.88453s-33.667797-18.067494-33.667797-31.863708c0-13.794168-2.901073-16.58984 9.074679-37.033451 9.394974-16.039301 14.141068-20.60427 24.593118-33.646308 10.45205-13.044084 29.323862-32.216749 56.616462-57.520041 27.291576-25.303292 49.872874-40.750099 57.712423-52.227502 7.838525-11.477402 17.630542-30.003338 17.630542-52.699246 0-22.694885-10.92277-43.482327-37.149085-59.658751-26.225291-16.177448-45.775556-19.457144-87.584778-19.457144-41.809221 0-106.850563 31.777751-107.387799 113.058962-0.005117 0.573051-0.00614 1.14815-0.00614 1.726318 0-0.004093-2.796696 26.995841-38.832424 26.995841-36.036751 0-37.734416-29.537733-37.686321-30.79026 1.408069-35.917024 6.294356-63.075571 14.675234-81.901335 8.710382-19.565615 22.646789-37.042661 41.809221-52.433186 19.162432-15.389502 40.502459-26.737968 64.020082-34.041304 23.518646-7.30436 48.342008-10.956539 74.473155-10.956539 52.841485 0 96.827279 13.956873 131.958404 41.868573 35.131125 27.912723 52.697199 65.085344 52.697199 111.517863C716.25601 389.802914 711.756533 408.714635 702.755532 425.670819z" fill="#bfbfbf" /></svg>