<?xml version="1.0" standalone="no"?><!DOCTYPE svg PUBLIC "-//W3C//DTD SVG 1.1//EN" "http://www.w3.org/Graphics/SVG/1.1/DTD/svg11.dtd"><svg class="icon" width="32px" height="19.87px" viewBox="0 0 1649 1024" version="1.1" xmlns="http://www.w3.org/2000/svg"><path d="M1581.576647 84.311532C1547.046115 62.654379 1501.562538 62.654379 1456.754638 84.311532L1126.812018 243.664075 1126.812018 177.981383C1126.812018 79.937429 1047.046843 0.172252 949.002887 0.172252L177.80913 0.172252C79.765177 0.172252 0 68.699892 0 152.945857L0 845.93916C0 947.325925 45.945878 1023.748288 106.934411 1023.748288L178.306995 1023.748288 178.306995 952.624638 106.934411 952.624638C99.857608 952.624638 71.123652 918.307475 71.123652 845.93916L71.123652 152.945857C71.123652 108.671383 119.985601 71.295904 177.80913 71.295904L949.002887 71.295904C1007.822146 71.295904 1055.688364 119.162121 1055.688364 177.981383L1055.688364 845.93916C1055.688364 904.758419 1007.822149 952.624638 949.002887 952.624638L400.817339 952.624638 400.817339 1023.748288 949.002887 1023.748288C1047.046841 1023.748288 1126.812018 943.983114 1126.812018 845.93916L1126.812018 780.5054 1456.861324 941.315976C1479.407521 952.30458 1502.095964 957.781102 1523.504185 957.781102 1544.627912 957.781102 1564.471408 952.446829 1581.612209 941.707157 1616.07162 920.121129 1635.843994 879.189467 1635.843994 829.367348L1635.843994 196.722464C1635.843994 146.935909 1616.036057 105.968685 1581.576647 84.311532L1581.576647 84.311532ZM1564.720343 829.367348C1564.720343 854.11838 1557.110112 873.072832 1543.881111 881.358738 1530.58099 889.609081 1510.239624 888.151047 1488.013482 877.340252L1126.812018 701.344775 1126.812018 322.611327 1487.657864 148.358381C1509.955129 137.618708 1530.438741 136.196237 1543.738863 144.553265 1557.074547 152.910294 1564.72034 171.935872 1564.72034 196.722464L1564.720343 829.367348 1564.720343 829.367348Z" fill="#8a8a8a" /><path d="M205.654038 257.390939C205.654038 285.888949 228.756239 308.991148 257.254248 308.991148 285.752255 308.991148 308.854457 285.888949 308.854457 257.390939 308.854457 228.892932 285.752255 205.790731 257.254248 205.790731 228.756239 205.790731 205.654038 228.892932 205.654038 257.390939L205.654038 257.390939Z" fill="#8a8a8a" /></svg>