<?xml version="1.0" standalone="no"?><!DOCTYPE svg PUBLIC "-//W3C//DTD SVG 1.1//EN" "http://www.w3.org/Graphics/SVG/1.1/DTD/svg11.dtd"><svg class="icon" width="32px" height="32.00px" viewBox="0 0 1024 1024" version="1.1" xmlns="http://www.w3.org/2000/svg"><path d="M99.55567 85.31923A85.276421 85.276421 0 0 1 184.960091 0.000142H686.933285L938.666548 256.000071v683.605144A84.337754 84.337754 0 0 1 854.172349 1023.999858H184.049869A84.465754 84.465754 0 0 1 99.55567 939.562548V85.31923z" fill="#315FA5" /><path d="M456.746682 682.666619l68.579537-264.376815L593.891533 682.666619h72.078202l82.275533-341.333238h-68.579537l-51.441763 246.542153L569.912873 341.333381h-82.261311l-65.237315 242.972377L371.043595 341.333381h-72.078202l82.346643 341.333238z" fill="#FFFFFF" /><path d="M938.666548 256.000071H772.152817a85.33331 85.33331 0 0 1-85.219532-85.247976V0.000142L938.666548 256.000071z" fill="#224273" /></svg>