<?xml version="1.0" standalone="no"?><!DOCTYPE svg PUBLIC "-//W3C//DTD SVG 1.1//EN" "http://www.w3.org/Graphics/SVG/1.1/DTD/svg11.dtd"><svg class="icon" width="32px" height="32.00px" viewBox="0 0 1024 1024" version="1.1" xmlns="http://www.w3.org/2000/svg"><path d="M512 0C230.4 0 0 230.4 0 512s230.4 512 512 512 512-230.4 512-512S793.6 0 512 0z m0 934.4c-230.4 0-422.4-192-422.4-422.4S277.333333 89.6 512 89.6s422.4 183.466667 422.4 422.4c0 230.4-187.733333 422.4-422.4 422.4z m115.2-290.133333c-12.8 0-46.933333 81.066667-72.533333 85.333333-8.533333 0-8.533333-4.266667-12.8-12.8 0-12.8 4.266667-38.4 8.533333-51.2l42.666667-179.2c21.333333-89.6-21.333333-106.666667-55.466667-106.666667-46.933333 4.266667-85.333333 34.133333-115.2 72.533334-8.533333 12.8-42.666667 55.466667-38.4 68.266666 0 4.266667 4.266667 12.8 12.8 8.533334 12.8 0 46.933333-81.066667 76.8-85.333334 8.533333 0 12.8 8.533333 8.533333 21.333334l-42.666666 162.133333c0 21.333333-21.333333 98.133333-17.066667 140.8 4.266667 34.133333 25.6 46.933333 55.466667 42.666667 81.066667-8.533333 166.4-128 162.133333-153.6 0-8.533333-8.533333-12.8-12.8-12.8z m-55.466667-298.666667c38.4-4.266667 64-38.4 59.733334-76.8-4.266667-38.4-29.866667-59.733333-64-55.466667-34.133333 4.266667-64 38.4-59.733334 76.8 4.266667 38.4 29.866667 59.733333 64 55.466667z" /></svg>