<?xml version="1.0" standalone="no"?><!DOCTYPE svg PUBLIC "-//W3C//DTD SVG 1.1//EN" "http://www.w3.org/Graphics/SVG/1.1/DTD/svg11.dtd"><svg class="icon" width="32px" height="32.00px" viewBox="0 0 1024 1024" version="1.1" xmlns="http://www.w3.org/2000/svg"><path d="M512 93.875c-231.938 0-420 188.063-420 420s188.063 420 420 420 420-188.063 420-420-188.063-420-420-420zM715.063 655.438c2.813 2.813 4.313 6.563 4.313 10.5s-1.5 7.875-4.313 10.5l-40.5 40.688c-3.001 3.001-6.75 4.313-10.5 4.313s-7.687-1.5-10.5-4.313l-141.563-141.75-141.375 141.938c-2.813 3.001-6.75 4.313-10.5 4.313s-7.687-1.5-10.5-4.313l-40.5-40.688c-2.813-2.813-4.313-6.563-4.313-10.5s1.5-7.875 4.313-10.5l141.938-142.5-142.313-140.625c-5.813-5.813-5.813-15.375 0-21.188l40.5-40.688c2.813-2.813 6.563-4.313 10.5-4.313s7.687 1.5 10.5 4.313l141.938 140.063 141.938-140.063c2.813-2.813 6.563-4.313 10.5-4.313s7.689 1.5 10.5 4.313l40.5 40.688c5.812 5.812 5.812 15.375 0 21.188l-142.313 140.625 141.75 142.313z" fill="#8a8a8a" /></svg>